/* XPM */
static char * pandacoin32_xpm[] = {
"32 32 708 2",
"  	c None",
". 	c #E5D58D",
"+ 	c #ECE1AB",
"@ 	c #EEE1A0",
"# 	c #E9DC87",
"$ 	c #E7D590",
"% 	c #DFCA82",
"& 	c #D9C597",
"* 	c #D2B67B",
"= 	c #DCC67F",
"- 	c #DDD3B0",
"; 	c #E4E4E3",
"> 	c #EFEFEF",
", 	c #F8F8F8",
"' 	c #EFD863",
") 	c #EEE392",
"! 	c #EFD765",
"~ 	c #E5D25C",
"{ 	c #D6D6D6",
"] 	c #CCCCCC",
"^ 	c #C7C7C7",
"/ 	c #CCBD9F",
"( 	c #D2B676",
"_ 	c #DFBF6D",
": 	c #DCD4BD",
"< 	c #E1E1E1",
"[ 	c #E0E0E0",
"} 	c #E4E4E4",
"| 	c #EDEDED",
"1 	c #F7F7F7",
"2 	c #ECD684",
"3 	c #E8D277",
"4 	c #E7CD68",
"5 	c #DBC375",
"6 	c #D5D5D5",
"7 	c #CACACA",
"8 	c #C9C9C9",
"9 	c #CECECD",
"0 	c #CFC6B1",
"a 	c #D8B866",
"b 	c #DBC695",
"c 	c #DFDFDF",
"d 	c #E2E2E2",
"e 	c #EAEAEA",
"f 	c #F5F5F5",
"g 	c #E8CD87",
"h 	c #EEDB5C",
"i 	c #E3D46B",
"j 	c #D5BD68",
"k 	c #D2D2D3",
"l 	c #CBCBCB",
"m 	c #D0CFCF",
"n 	c #D2D2D2",
"o 	c #D1D1D1",
"p 	c #D3C08E",
"q 	c #D1C2A2",
"r 	c #DADADA",
"s 	c #E7E7E7",
"t 	c #F3F3F3",
"u 	c #F4E7AE",
"v 	c #EDEA98",
"w 	c #E6E19B",
"x 	c #DBCE79",
"y 	c #CFCFD0",
"z 	c #CDCDCD",
"A 	c #CFC3A1",
"B 	c #C4B695",
"C 	c #C9CBCA",
"D 	c #D3D4D3",
"E 	c #DBDCDB",
"F 	c #DCDBD4",
"G 	c #E4D68C",
"H 	c #EFD64E",
"I 	c #F3D52F",
"J 	c #F7D52A",
"K 	c #F7CA0E",
"L 	c #F1BC1D",
"M 	c #E6B943",
"N 	c #D5BE7B",
"O 	c #C9C6BF",
"P 	c #D0D0CF",
"Q 	c #D0D0D0",
"R 	c #C4B897",
"S 	c #BDAA76",
"T 	c #B5B7B6",
"U 	c #BFC1BF",
"V 	c #D4D4D4",
"W 	c #DDDDDD",
"X 	c #DEDEDC",
"Y 	c #E3CC77",
"Z 	c #F8CB0F",
"` 	c #FFDB00",
" .	c #FFEC0D",
"..	c #FEF796",
"+.	c #FAF3C1",
"@.	c #D5A729",
"#.	c #DFA800",
"$.	c #EFB600",
"%.	c #FFBF00",
"&.	c #F8BC0D",
"*.	c #DDC26C",
"=.	c #D0CFCD",
"-.	c #C0C0C1",
";.	c #B6B6B8",
">.	c #BCA978",
",.	c #C2A650",
"'.	c #A0A3A1",
").	c #A9ACAA",
"!.	c #B3B5B4",
"~.	c #BEBFBE",
"{.	c #D3CEBF",
"].	c #EFC02F",
"^.	c #D69D00",
"/.	c #D1A200",
"(.	c #F1D600",
"_.	c #FFF80E",
":.	c #FEFEAD",
"<.	c #F7F3D2",
"[.	c #E8BF31",
"}.	c #DAAB00",
"|.	c #FED100",
"1.	c #FDD300",
"2.	c #F6C900",
"3.	c #FCC800",
"4.	c #EEC32A",
"5.	c #D0CBB9",
"6.	c #C9C9CA",
"7.	c #BFBFC0",
"8.	c #B3B4B5",
"9.	c #A9A9AB",
"0.	c #9E9FA1",
"a.	c #C09F51",
"b.	c #9B967D",
"c.	c #959A97",
"d.	c #9DA19E",
"e.	c #A6A9A7",
"f.	c #B0B3B1",
"g.	c #BDBAAA",
"h.	c #F1BB1C",
"i.	c #FFC700",
"j.	c #DEAF00",
"k.	c #9B5900",
"l.	c #A15D00",
"m.	c #F0DB00",
"n.	c #FEFE8C",
"o.	c #F7F4D6",
"p.	c #A97F22",
"q.	c #986D00",
"r.	c #D9AE00",
"s.	c #AA8600",
"t.	c #262100",
"u.	c #948400",
"v.	c #DFB000",
"w.	c #EDBD19",
"x.	c #BFBAAA",
"y.	c #B1B1B3",
"z.	c #A4A5A7",
"A.	c #9A9B9E",
"B.	c #909295",
"C.	c #948D7B",
"D.	c #AF9852",
"E.	c #868B89",
"F.	c #8B908D",
"G.	c #919592",
"H.	c #989C99",
"I.	c #A1A4A0",
"J.	c #E6BA28",
"K.	c #FFC800",
"L.	c #FFD400",
"M.	c #F2CB00",
"N.	c #C79900",
"O.	c #E8C900",
"P.	c #D7BB00",
"Q.	c #D09428",
"R.	c #E1B578",
"S.	c #7E6112",
"T.	c #3F3200",
"U.	c #F0CA00",
"V.	c #E6C600",
"W.	c #3C3300",
"X.	c #F7D900",
"Y.	c #FED000",
"Z.	c #E8BB25",
"`.	c #9F9F9F",
" +	c #939598",
".+	c #898C8F",
"++	c #828488",
"@+	c #7B7E83",
"#+	c #A88C50",
"$+	c #928867",
"%+	c #7E8381",
"&+	c #828784",
"*+	c #868B88",
"=+	c #BCA854",
"-+	c #FFCC00",
";+	c #FFDC00",
">+	c #FFD900",
",+	c #FFD600",
"'+	c #FCD500",
")+	c #D8A500",
"!+	c #DDB600",
"~+	c #E4CD14",
"{+	c #673702",
"]+	c #D27E0F",
"^+	c #E19500",
"/+	c #A77B00",
"(+	c #B59900",
"_+	c #786100",
":+	c #040400",
"<+	c #DCBD00",
"[+	c #E8B000",
"}+	c #BCA24F",
"|+	c #828589",
"1+	c #76797E",
"2+	c #73757B",
"3+	c #8A7D64",
"4+	c #737879",
"5+	c #757B7B",
"6+	c #787D7D",
"7+	c #7C8180",
"8+	c #82857F",
"9+	c #F3C10C",
"0+	c #FFE200",
"a+	c #FFE000",
"b+	c #FFDA00",
"c+	c #D8A100",
"d+	c #E9B800",
"e+	c #FFE700",
"f+	c #E8D401",
"g+	c #D75800",
"h+	c #E88000",
"i+	c #E69E00",
"j+	c #7D6800",
"k+	c #382A00",
"l+	c #AD8900",
"m+	c #000000",
"n+	c #7B6400",
"o+	c #EAC200",
"p+	c #B98200",
"q+	c #EFB40A",
"r+	c #797978",
"s+	c #72747A",
"t+	c #717379",
"u+	c #A0844D",
"v+	c #6D7176",
"w+	c #6E7377",
"x+	c #707578",
"y+	c #73787A",
"z+	c #A19253",
"A+	c #FFC400",
"B+	c #FDDE00",
"C+	c #FDE000",
"D+	c #DAAD00",
"E+	c #E6BC00",
"F+	c #B26300",
"G+	c #EABF00",
"H+	c #E2B100",
"I+	c #E55B00",
"J+	c #E68600",
"K+	c #E59C00",
"L+	c #F2AD00",
"M+	c #EDA800",
"N+	c #B47E00",
"O+	c #332900",
"P+	c #EEBF00",
"Q+	c #C99200",
"R+	c #E9A900",
"S+	c #A28D4F",
"T+	c #A1844F",
"U+	c #907A55",
"V+	c #817E5A",
"W+	c #818160",
"X+	c #868058",
"Y+	c #72746C",
"Z+	c #C49B2E",
"`+	c #F0B300",
" @	c #DB9F00",
".@	c #D09600",
"+@	c #C58000",
"@@	c #C47E00",
"#@	c #DCB600",
"$@	c #C98D00",
"%@	c #D49E00",
"&@	c #DDA600",
"*@	c #E36000",
"=@	c #F3B000",
"-@	c #F2B100",
";@	c #EA9C00",
">@	c #EA9900",
",@	c #915C00",
"'@	c #030200",
")@	c #CD9C00",
"!@	c #E6AD00",
"~@	c #FFBD00",
"{@	c #CB9C2C",
"]@	c #767672",
"^@	c #7D7D6C",
"/@	c #7E7D72",
"(@	c #727376",
"_@	c #967F59",
":@	c #977F4B",
"<@	c #CAB21D",
"[@	c #BDB344",
"}@	c #BBA62B",
"|@	c #867E52",
"1@	c #D89E18",
"2@	c #DA9A00",
"3@	c #DC9500",
"4@	c #D19B00",
"5@	c #E0A000",
"6@	c #DCA800",
"7@	c #FAD300",
"8@	c #F6D400",
"9@	c #F9DA00",
"0@	c #F7D100",
"a@	c #D77100",
"b@	c #6B6300",
"c@	c #372B00",
"d@	c #DD8500",
"e@	c #E68D00",
"f@	c #804D00",
"g@	c #AE7C00",
"h@	c #FDC300",
"i@	c #FCBC00",
"j@	c #E2A316",
"k@	c #A1944A",
"l@	c #CCB821",
"m@	c #C9B642",
"n@	c #B2A237",
"o@	c #947E57",
"p@	c #84725B",
"q@	c #B99420",
"r@	c #B29A2B",
"s@	c #A48C33",
"t@	c #6D6A60",
"u@	c #E09E0D",
"v@	c #E9AD00",
"w@	c #ECB500",
"x@	c #D39100",
"y@	c #EDB500",
"z@	c #EAB400",
"A@	c #F0BA00",
"B@	c #E6AC00",
"C@	c #E8B100",
"D@	c #FAD100",
"E@	c #DA9200",
"F@	c #D67600",
"G@	c #9A4E00",
"H@	c #D26800",
"I@	c #DB7D00",
"J@	c #804300",
"K@	c #020100",
"L@	c #BA8300",
"M@	c #F5BC00",
"N@	c #F4B700",
"O@	c #EBA50B",
"P@	c #A08E46",
"Q@	c #B59C2C",
"R@	c #B9A436",
"S@	c #B39A35",
"T@	c #8F7B5B",
"U@	c #83715C",
"V@	c #95803F",
"W@	c #989545",
"X@	c #A39534",
"Y@	c #80754F",
"Z@	c #DB970E",
"`@	c #E2A500",
" #	c #D99E00",
".#	c #D09500",
"+#	c #A67200",
"@#	c #C49100",
"##	c #C88F00",
"$#	c #362200",
"%#	c #070500",
"&#	c #906900",
"*#	c #DC7F00",
"=#	c #E16700",
"-#	c #D05C00",
";#	c #C15300",
">#	c #B64800",
",#	c #CE5C00",
"'#	c #A75300",
")#	c #AF6400",
"!#	c #E7AC00",
"~#	c #ECB100",
"{#	c #E6A20C",
"]#	c #897D5E",
"^#	c #9D8A48",
"/#	c #B9B44B",
"(#	c #988946",
"_#	c #8E7B60",
":#	c #927953",
"<#	c #827C5B",
"[#	c #85875C",
"}#	c #848461",
"|#	c #848059",
"1#	c #CA8F1A",
"2#	c #C58400",
"3#	c #BB7A00",
"4#	c #D69A00",
"5#	c #7F5E00",
"6#	c #0F0A00",
"7#	c #1E1400",
"8#	c #2D1A00",
"9#	c #D25F00",
"0#	c #F18000",
"a#	c #FA8100",
"b#	c #EA6B00",
"c#	c #CF5500",
"d#	c #C64E00",
"e#	c #CD5400",
"f#	c #D76400",
"g#	c #E19600",
"h#	c #E3AA00",
"i#	c #E6AF00",
"j#	c #E6AB00",
"k#	c #D69B17",
"l#	c #8C8665",
"m#	c #767773",
"n#	c #A0A069",
"o#	c #969052",
"p#	c #927E60",
"q#	c #92795A",
"r#	c #70737A",
"s#	c #72757C",
"t#	c #74777D",
"u#	c #777A80",
"v#	c #B98C33",
"w#	c #C08000",
"x#	c #C28C00",
"y#	c #C68900",
"z#	c #D49800",
"A#	c #554700",
"B#	c #090600",
"C#	c #503B00",
"D#	c #B06800",
"E#	c #FE8F00",
"F#	c #FD9900",
"G#	c #FD8D00",
"H#	c #FA7900",
"I#	c #EB6B00",
"J#	c #DB6200",
"K#	c #D35B00",
"L#	c #D86F00",
"M#	c #E1A400",
"N#	c #E4AE00",
"O#	c #E4A500",
"P#	c #C1942F",
"Q#	c #76797F",
"R#	c #75787F",
"S#	c #75787E",
"T#	c #98805D",
"U#	c #A28055",
"V#	c #7A7D82",
"W#	c #7D8085",
"X#	c #808287",
"Y#	c #83868A",
"Z#	c #A69161",
"`#	c #CB8800",
" $	c #C08D00",
".$	c #ECA900",
"+$	c #EBB300",
"@$	c #E6B700",
"#$	c #A75800",
"$$	c #FC9800",
"%$	c #F99300",
"&$	c #C77300",
"*$	c #3A1F00",
"=$	c #CB6800",
"-$	c #EA8200",
";$	c #E59800",
">$	c #E6B300",
",$	c #E5B100",
"'$	c #E5AE00",
")$	c #E39E00",
"!$	c #A38E56",
"~$	c #787B82",
"{$	c #787B81",
"]$	c #777A81",
"^$	c #A38354",
"/$	c #878A8E",
"($	c #8C8E92",
"_$	c #919397",
":$	c #999798",
"<$	c #D9950F",
"[$	c #CF9B00",
"}$	c #F8B700",
"|$	c #FFC500",
"1$	c #FFCF00",
"2$	c #D89600",
"3$	c #150C00",
"4$	c #3D2400",
"5$	c #4C2F00",
"6$	c #0B0700",
"7$	c #402200",
"8$	c #F9A200",
"9$	c #EFB200",
"0$	c #EBBE00",
"a$	c #E8B800",
"b$	c #E1A20C",
"c$	c #7C7C7F",
"d$	c #787B83",
"e$	c #787C83",
"f$	c #787C82",
"g$	c #9F8C79",
"h$	c #949699",
"i$	c #A1A2A4",
"j$	c #A8A9AA",
"k$	c #C8A967",
"l$	c #EB9F00",
"m$	c #CC9B00",
"n$	c #C99800",
"o$	c #E5AF00",
"p$	c #F1D100",
"q$	c #664300",
"r$	c #3D1D00",
"s$	c #FAAE00",
"t$	c #F2CD00",
"u$	c #EEC700",
"v$	c #ECBF00",
"w$	c #E9AA00",
"x$	c #B29750",
"y$	c #7D8087",
"z$	c #797D85",
"A$	c #8F806D",
"B$	c #B99162",
"C$	c #A7A8AA",
"D$	c #AFAFB0",
"E$	c #B6B6B7",
"F$	c #BCBCBC",
"G$	c #EAB030",
"H$	c #E5A900",
"I$	c #CB9200",
"J$	c #EAB500",
"K$	c #FFEC00",
"L$	c #E7D000",
"M$	c #A47E00",
"N$	c #9C7A18",
"O$	c #5F4504",
"P$	c #322200",
"Q$	c #492700",
"R$	c #CE9300",
"S$	c #F7D700",
"T$	c #F5D600",
"U$	c #F2CE00",
"V$	c #EEBA00",
"W$	c #DAAA26",
"X$	c #8F9093",
"Y$	c #878A8F",
"Z$	c #81848B",
"`$	c #7C8087",
" %	c #A88656",
".%	c #B3A597",
"+%	c #BABBBB",
"@%	c #C1C1C1",
"#%	c #C6C6C6",
"$%	c #C9C4B8",
"%%	c #F0B720",
"&%	c #E1A800",
"*%	c #ECBA00",
"=%	c #FFE800",
"-%	c #FFF100",
";%	c #FEF900",
">%	c #FFFD03",
",%	c #FFFD9C",
"'%	c #F7F1C7",
")%	c #F2D967",
"!%	c #F7DC03",
"~%	c #FBE700",
"{%	c #F9E100",
"]%	c #F7DA00",
"^%	c #F4C700",
"/%	c #E7B51B",
"(%	c #AAA598",
"_%	c #9B9C9E",
":%	c #929498",
"<%	c #8B8D92",
"[%	c #85888D",
"}%	c #8D857A",
"|%	c #CD9E5F",
"1%	c #BCBCBD",
"2%	c #C3C3C3",
"3%	c #C9C4B7",
"4%	c #EABE31",
"5%	c #F9C900",
"6%	c #FFE600",
"7%	c #FFF300",
"8%	c #FEFB00",
"9%	c #FFFD0D",
"0%	c #FFFDA7",
"a%	c #FEFCD7",
"b%	c #FEF6A3",
"c%	c #FDEF17",
"d%	c #FBE800",
"e%	c #FADD00",
"f%	c #F9CA00",
"g%	c #E5BB2C",
"h%	c #BAB5A7",
"i%	c #B0B0B1",
"j%	c #A6A7A8",
"k%	c #9D9EA0",
"l%	c #95969A",
"m%	c #8D9094",
"n%	c #B99250",
"o%	c #CBB088",
"p%	c #C8C8C8",
"q%	c #C7C6C5",
"r%	c #D7C272",
"s%	c #F6CD12",
"t%	c #FFDF00",
"u%	c #FFEF00",
"v%	c #FFF50C",
"w%	c #FFF791",
"x%	c #FFF7C1",
"y%	c #FEF08A",
"z%	c #FEE311",
"A%	c #FDD400",
"B%	c #F4C710",
"C%	c #D9C270",
"D%	c #C2C2C0",
"E%	c #BDBDBD",
"F%	c #B7B7B7",
"G%	c #B0B1B1",
"H%	c #A7A8A9",
"I%	c #9FA0A2",
"J%	c #AF9871",
"K%	c #CBBA9E",
"L%	c #CBCAC6",
"M%	c #DCCF8B",
"N%	c #EBD352",
"O%	c #F2D227",
"P%	c #F5D218",
"Q%	c #F5D225",
"R%	c #F3D02B",
"S%	c #EFD254",
"T%	c #E4D491",
"U%	c #D6D5D0",
"V%	c #D1D1D0",
"W%	c #C9C9C8",
"X%	c #C2C2C1",
"Y%	c #BCBCBB",
"Z%	c #B1B1B1",
"`%	c #B3A489",
" &	c #CABC9E",
".&	c #C9C8C8",
"+&	c #DED8B4",
"@&	c #E6DC9A",
"#&	c #EFECD9",
"$&	c #F6F4E8",
"%&	c #FBFAF2",
"&&	c #F7F2D3",
"*&	c #F2E39B",
"=&	c #E5DDC0",
"-&	c #D5D5D4",
";&	c #C6C6C5",
">&	c #C0C0C0",
",&	c #BBBBBB",
"'&	c #BDAF92",
")&	c #CDBA8B",
"!&	c #D4D4D5",
"~&	c #E0C457",
"{&	c #E2D8B4",
"]&	c #EBD55F",
"^&	c #F0D63A",
"/&	c #FCF3B7",
"(&	c #EDD057",
"_&	c #EEE8D0",
":&	c #E9CD6D",
"<&	c #D8D8D8",
"[&	c #C6B486",
"}&	c #D3B868",
"|&	c #C7C1AC",
"1&	c #CFCFCF",
"2&	c #D7D7D7",
"3&	c #D7BA69",
"4&	c #E0CD9B",
"5&	c #E9D9AB",
"6&	c #E9CD75",
"7&	c #E9D566",
"8&	c #E7D088",
"9&	c #E7DCBB",
"0&	c #EAD38D",
"a&	c #DCD9D0",
"b&	c #DBDBDB",
"c&	c #D5D4D4",
"d&	c #CCC5B1",
"e&	c #D2B567",
"f&	c #D0BE7B",
"g&	c #D1C9A8",
"h&	c #D9CBA8",
"i&	c #F5F2E6",
"j&	c #F2E7A4",
"k&	c #FAF086",
"l&	c #EEE7BE",
"m&	c #E3C765",
"n&	c #E2CF94",
"o&	c #E5E5E5",
"p&	c #DAD0B2",
"q&	c #D6C181",
"r&	c #DECF8C",
"s&	c #E5DAA8",
"t&	c #ECE2B7",
"u&	c #F1E8C1",
"v&	c #F2E9C2",
"w&	c #F0E6BB",
"x&	c #ECDFAE",
"y&	c #E4D392",
"                        . + @ # $ % & *                         ",
"                  = - ; > , ' ) ! ~ { ] ^ / (                   ",
"              _ : < [ } | 1 2 3 4 5 6 7 8 7 9 0 a               ",
"            b c < < [ d e f g h i j k 8 8 l m n o p             ",
"          q r [ < < < < s t u v w x y 8 7 z o n n n A           ",
"        B C D E < < < F G H I J K L M N O P n n n Q 7 R         ",
"      S T U C V W X Y Z `  ...+.@.#.$.%.&.*.=.n o 7 -.;.>.      ",
"    ,.'.).!.~.C {.].^./.(._.:.<.[.}.|.1.2.3.4.5.6.7.8.9.0.a.    ",
"    b.c.d.e.f.g.h.i.j.k.l.m.n.o.p.q.r.s.t.u.v.w.x.y.z.A.B.C.    ",
"  D.E.F.G.H.I.J.K.L.M.N.O.P.Q.R.S.T.U.V.T.W.X.Y.Z.`. +.+++@+#+  ",
"  $+%+&+*+F.=+-+;+>+,+'+)+!+~+{+]+^+/+(+_+:+<+` [+}+|+@+1+2+3+  ",
"  4+5+6+7+8+9+;+0+a+b+c+d+e+f+g+h+i+j+k+l+m+n+o+p+q+r+s+t+t+t+  ",
"u+v+w+x+y+z+A+;+B+C+D+E+F+G+H+I+J+K+L+M+N+m+O+P+Q+R+S+t+t+t+t+T+",
"U+V+W+X+Y+Z+`+ @.@+@@@#@$@%@&@*@=@-@;@>@,@m+'@)@!@~@{@]@^@/@(@_@",
":@<@[@}@|@1@2@3@4@5@6@7@8@9@0@a@b@c@d@e@f@m+m+g@h@i@j@k@l@m@n@o@",
"p@q@r@s@t@u@v@w@x@y@z@A@B@C@D@E@F@G@H@I@J@m+K@L@M@N@O@P@Q@R@S@T@",
"U@V@W@X@Y@Z@`@ #.#+#@###$#%#&#*#=#-#;#>#,#'#)#!#w@~#{#]#^#/#(#_#",
":#<#[#}#|#1#2#3#4#5#6#7#m+8#9#0#a#b#c#d#e#f#g#h#i#j#k#l#m#n#o#p#",
"q#r#s#t#u#v#w#x#y#z#A#B#C#D#E#F#G#H#I#J#K#L#M#N#N#O#P#Q#Q#R#S#T#",
"U#V#W#X#Y#Z#`# $ #.$+$@$O##$$$%$&$*$*$=$-$;$>$,$'$)$!$~${$]$u#^$",
"  Y#/$($_$:$<$[$.@}$|$1$2$3$4$5$6$m+m+7$8$9$0$a$i#b$c$d$e$f${$  ",
"  g$h$A.i$j$k$l$m$n$o$>+p$q$m+m+m+m+m+r$s$t$u$v$w$x$y$z$d$d$A$  ",
"  B$i$C$D$E$F$G$H$I$J$0+K$L$M$N$O$P$Q$R$S$T$U$V$W$X$Y$Z$`$z$ %  ",
"    .%8.+%@%#%$%%%&%*%=%-%;%>%,%'%)%!%~%{%]%^%/%(%_%:%<%[%}%    ",
"    |%1%2%^ 8 8 3%4%5%6%7%8%9%0%a%b%c%d%e%f%g%h%i%j%k%l%m%n%    ",
"      o%p%8 8 8 8 q%r%s%t%u%v%w%x%y%z%A%B%C%D%E%F%G%H%I%J%      ",
"        K%8 8 8 p%p%8 L%M%N%O%P%Q%R%S%T%U%V%W%X%Y%F%Z%`%        ",
"           &8 .&p%p%7 o +&@&#&$&%&&&*&=&W -&z ;&>&,&'&          ",
"            )&^ p%8 z !&~&{&]&^&/&(&_&:&X <&V%7 2%[&            ",
"              }&|&7 1&2&3&4&5&6&7&8&9&0&a&b&c&d&e&              ",
"                  f&g&<&h&| i&j&k&l&m&n&o&p&q&                  ",
"                        r&s&t&u&v&w&x&y&                        "};
